<?xml version="1.0" encoding="utf-8"?>
<!-- Generator: Adobe Illustrator 16.0.0, SVG Export Plug-In . SVG Version: 6.00 Build 0)  -->
<!DOCTYPE svg PUBLIC "-//W3C//DTD SVG 1.1//EN" "http://www.w3.org/Graphics/SVG/1.1/DTD/svg11.dtd">
<svg version="1.1" xmlns="http://www.w3.org/2000/svg" xmlns:xlink="http://www.w3.org/1999/xlink" x="0px" y="0px"
	 width="229.92px" height="53.092px" viewBox="0 0 229.92 53.092" enable-background="new 0 0 229.92 53.092" xml:space="preserve">
<g id="Layer_1_xA0_Image_1_">
	<g>
		<path fill="#FFFFFF" d="M50.017,19.287L41.09,36.883h5.593l1.806-3.813h8.24l1.91,3.813h5.715l-9.177-17.596H50.017z
			 M54.919,29.437h-4.693l2.323-4.899L54.919,29.437z"/>
		<path fill="#FFFFFF" d="M80.783,30.168c-0.379-0.312-0.822-0.611-1.322-0.895c1.39-0.286,2.493-0.772,3.29-1.449
			c1.055-0.897,1.589-2.05,1.589-3.427c0-1.084-0.353-2.061-1.047-2.902c-0.686-0.832-1.609-1.417-2.743-1.74
			c-1.106-0.314-2.809-0.468-5.206-0.468h-9.697v17.596h5.22v-7.01h0.494c0.974,0,1.687,0.059,2.118,0.176
			c0.411,0.11,0.807,0.32,1.179,0.622c0.398,0.324,1.164,1.138,2.278,2.421l3.313,3.791h6.31l-3.204-3.93
			C82.274,31.614,81.433,30.703,80.783,30.168z M70.867,22.932h3.044c2.201,0,2.944,0.03,3.172,0.055
			c0.631,0.081,1.118,0.269,1.448,0.56c0.306,0.271,0.454,0.621,0.454,1.068c0,0.406-0.113,0.73-0.346,0.993
			c-0.244,0.274-0.593,0.472-1.04,0.588c-0.338,0.088-1.283,0.193-3.867,0.193h-2.866V22.932z"/>
		<path fill="#FFFFFF" d="M101.71,30.192c-0.338,1.133-0.897,1.969-1.66,2.486c-0.774,0.524-1.717,0.79-2.804,0.79
			c-1.481,0-2.696-0.42-3.609-1.248c-0.903-0.817-1.361-2.243-1.361-4.238c0-1.872,0.464-3.23,1.379-4.041
			c0.929-0.822,2.167-1.239,3.68-1.239c1.093,0,2.028,0.234,2.781,0.697c0.74,0.454,1.211,1.054,1.443,1.833l0.104,0.346
			l5.196-0.953l-0.167-0.448c-0.523-1.414-1.323-2.517-2.378-3.278c-1.733-1.259-4.006-1.898-6.755-1.898
			c-3.146,0-5.726,0.811-7.671,2.411c-1.968,1.619-2.966,3.914-2.966,6.822c0,2.757,0.993,4.964,2.953,6.56
			c1.936,1.576,4.43,2.375,7.415,2.375c2.408,0,4.431-0.467,6.014-1.388c1.604-0.934,2.765-2.379,3.451-4.295l0.15-0.42
			l-5.087-1.238L101.71,30.192z"/>
		<path fill="#FFFFFF" d="M123.572,19.287l-8.927,17.596h5.594l1.805-3.813h8.241l1.91,3.813h5.716l-9.177-17.596H123.572z
			 M128.475,29.437h-4.692l2.322-4.899L128.475,29.437z"/>
		<path fill="#FFFFFF" d="M152.183,28.979c0,1.292-0.062,2.222-0.184,2.763c-0.105,0.468-0.422,0.859-0.968,1.196
			c-0.57,0.352-1.452,0.53-2.624,0.53c-1.155,0-2.069-0.191-2.714-0.569c-0.623-0.364-1.004-0.827-1.164-1.408
			c-0.07-0.27-0.152-0.958-0.152-2.706v-9.497h-5.219v9.36c0,1.937,0.147,3.368,0.45,4.379c0.219,0.712,0.672,1.397,1.347,2.035
			c0.666,0.629,1.575,1.144,2.705,1.531c1.116,0.384,2.758,0.577,4.882,0.577c1.765,0,3.221-0.177,4.33-0.528
			c1.123-0.355,2.039-0.844,2.719-1.452c0.696-0.622,1.18-1.394,1.439-2.296c0.251-0.878,0.374-2.312,0.374-4.384v-9.222h-5.22
			V28.979z"/>
		<path fill="#FFFFFF" d="M177.425,21.244c-0.96-0.776-2.125-1.323-3.462-1.626c-0.979-0.22-2.409-0.331-4.251-0.331h-8.474v17.596
			h8.713c1.654,0,3.001-0.123,4.004-0.367c1.349-0.332,2.442-0.806,3.248-1.408c1.065-0.794,1.896-1.846,2.469-3.125
			c0.469-1.047,0.706-2.305,0.706-3.737c0-1.623-0.252-3.013-0.75-4.132C179.127,22.987,178.386,22.022,177.425,21.244z
			 M166.458,22.932h1.583c1.769,0,2.966,0.052,3.56,0.155c0.759,0.126,1.391,0.368,1.875,0.719c0.475,0.345,0.852,0.835,1.12,1.459
			c0.275,0.642,0.415,1.595,0.415,2.832c0,1.24-0.141,2.225-0.419,2.927c-0.268,0.674-0.608,1.159-1.013,1.439
			c-0.423,0.294-0.972,0.508-1.631,0.634c-0.518,0.102-1.391,0.152-2.593,0.152h-2.896V22.932z"/>
		<rect x="183.186" y="19.287" fill="#FFFFFF" width="5.22" height="17.596"/>
		<path fill="#FFFFFF" d="M209.881,21.391c-2-1.585-4.686-2.389-7.986-2.389c-1.814,0-3.443,0.229-4.838,0.684
			c-1.065,0.342-2.059,0.873-2.953,1.58c-0.896,0.707-1.614,1.52-2.136,2.417c-0.699,1.218-1.053,2.733-1.053,4.507
			c0,2.789,1.02,5.012,3.032,6.608c1.983,1.574,4.677,2.372,8.008,2.372c3.29,0,5.965-0.802,7.949-2.383
			c2.011-1.604,3.031-3.851,3.031-6.678C212.935,25.258,211.907,22.999,209.881,21.391z M207.565,28.028
			c0,1.816-0.523,3.188-1.554,4.077c-1.048,0.904-2.418,1.363-4.072,1.363c-1.653,0-3.031-0.462-4.095-1.375
			c-1.06-0.91-1.575-2.224-1.575-4.02c0-1.8,0.515-3.157,1.531-4.031c1.034-0.89,2.426-1.34,4.139-1.34
			c1.713,0,3.098,0.444,4.117,1.323C207.058,24.889,207.565,26.235,207.565,28.028z"/>
	</g>
	<path fill="#FFFFFF" d="M52.963,45.888c23.327,4.231,46.646,5.963,46.646,5.963s-0.101,0.5-0.152,0.499
		C43.968,51.295,0,39.361,0,26.38C0,11.811,54.077,0,120.784,0c46.26,0,85.637,5.708,105.927,14.049
		c6.222,2.559-33.998-12.484-126.646-6.065C2.324,14.757,9.501,38.004,52.963,45.888z"/>
</g>
<g id="Layer_2_xA0_Image_1_">
</g>
</svg>
